HIERARCHY
ROOT hip
{
  OFFSET 0 0 0
  CHANNELS 6 Xposition Yposition Zposition Zrotation Yrotation Xrotation
  JOINT abdomen
  {
    OFFSET 0 20.6881 -0.73152
    CHANNELS 3 Zrotation Xrotation Yrotation
    JOINT chest
    {
      OFFSET 0 11.7043 -0.48768
      CHANNELS 3 Zrotation Xrotation Yrotation
      JOINT neck
      {
        OFFSET 0 22.1894 -2.19456
        CHANNELS 3 Zrotation Xrotation Yrotation
        JOINT head
        {
          OFFSET -0.24384 7.07133 1.2192
          CHANNELS 3 Zrotation Xrotation Yrotation
          JOINT leftEye
          {
            OFFSET 4.14528 8.04674 8.04672
            CHANNELS 3 Zrotation Xrotation Yrotation
            End Site
            {
              OFFSET 1 0 0
            }
          }
          JOINT rightEye
          {
            OFFSET -3.6576 8.04674 8.04672
            CHANNELS 3 Zrotation Xrotation Yrotation
            End Site
            {
              OFFSET 1 0 0
            }
          }
        }
      }
      JOINT rCollar
      {
        OFFSET -2.68224 19.2634 -4.8768
        CHANNELS 3 Zrotation Xrotation Yrotation
        JOINT rShldr
        {
          OFFSET -8.77824 -1.95073 1.46304
          CHANNELS 3 Zrotation Xrotation Yrotation
          JOINT rForeArm
          {
            OFFSET -28.1742 -1.7115 0.48768
            CHANNELS 3 Zrotation Xrotation Yrotation
            JOINT rHand
            {
              OFFSET -22.5879 0.773209 7.07136
              CHANNELS 3 Zrotation Xrotation Yrotation
              JOINT rThumb1
              {
                OFFSET -1.2192 -0.487915 3.41376
                CHANNELS 3 Zrotation Xrotation Yrotation
                JOINT rThumb2
                {
                  OFFSET -3.37035 -0.52449 3.41376
                  CHANNELS 3 Zrotation Xrotation Yrotation
                  End Site
                  {
                    OFFSET -1.78271 -1.18214 1.43049
                  }
                }
              }
              JOINT rIndex1
              {
                OFFSET -7.75947 0.938293 5.60832
                CHANNELS 3 Zrotation Xrotation Yrotation
                JOINT rIndex2
                {
                  OFFSET -2.54057 -0.884171 1.56538
                  CHANNELS 3 Zrotation Xrotation Yrotation
                  End Site
                  {
                    OFFSET -1.62519 -0.234802 1.16502
                  }
                }
              }
              JOINT rMid1
              {
                OFFSET -8.24714 1.18213 3.41376
                CHANNELS 3 Zrotation Xrotation Yrotation
                JOINT rMid2
                {
                  OFFSET -3.10165 -0.590103 1.0647
                  CHANNELS 3 Zrotation Xrotation Yrotation
                  End Site
                  {
                    OFFSET -2.48547 -0.328903 0.83742
                  }
                }
              }
              JOINT rRing1
              {
                OFFSET -8.82822 0.546677 1.51678
                CHANNELS 3 Zrotation Xrotation Yrotation
                JOINT rRing2
                {
                  OFFSET -2.60934 -0.819778 -0.0198488
                  CHANNELS 3 Zrotation Xrotation Yrotation
                  End Site
                  {
                    OFFSET -2.33842 -0.294052 0.168128
                  }
                }
              }
              JOINT rPinky1
              {
                OFFSET -8.27202 -0.0477905 -0.4584
                CHANNELS 3 Zrotation Xrotation Yrotation
                JOINT rPinky2
                {
                  OFFSET -1.82734 -0.647385 -0.700984
                  CHANNELS 3 Zrotation Xrotation Yrotation
                  End Site
                  {
                    OFFSET -1.69225 -0.51767 -0.607171
                  }
                }
              }
            }
          }
        }
      }
      JOINT lCollar
      {
        OFFSET 2.68224 19.2634 -4.8768
        CHANNELS 3 Zrotation Xrotation Yrotation
        JOINT lShldr
        {
          OFFSET 8.77824 -1.95073 1.46304
          CHANNELS 3 Zrotation Xrotation Yrotation
          JOINT lForeArm
          {
            OFFSET 28.1742 -1.7115 0.48768
            CHANNELS 3 Zrotation Xrotation Yrotation
            JOINT lHand
            {
              OFFSET 22.5879 0.773209 7.07136
              CHANNELS 3 Zrotation Xrotation Yrotation
              JOINT lThumb1
              {
                OFFSET 1.2192 -0.487915 3.41376
                CHANNELS 3 Zrotation Xrotation Yrotation
                JOINT lThumb2
                {
                  OFFSET 3.37035 -0.52449 3.41376
                  CHANNELS 3 Zrotation Xrotation Yrotation
                  End Site
                  {
                    OFFSET 1.78271 -1.18214 1.43049
                  }
                }
              }
              JOINT lIndex1
              {
                OFFSET 7.75947 0.938293 5.60832
                CHANNELS 3 Zrotation Xrotation Yrotation
                JOINT lIndex2
                {
                  OFFSET 2.54057 -0.884171 1.56538
                  CHANNELS 3 Zrotation Xrotation Yrotation
                  End Site
                  {
                    OFFSET 1.62519 -0.234802 1.16502
                  }
                }
              }
              JOINT lMid1
              {
                OFFSET 8.24714 1.18213 3.41376
                CHANNELS 3 Zrotation Xrotation Yrotation
                JOINT lMid2
                {
                  OFFSET 3.10165 -0.590103 1.0647
                  CHANNELS 3 Zrotation Xrotation Yrotation
                  End Site
                  {
                    OFFSET 2.48547 -0.328903 0.83742
                  }
                }
              }
              JOINT lRing1
              {
                OFFSET 8.82822 0.546677 1.51678
                CHANNELS 3 Zrotation Xrotation Yrotation
                JOINT lRing2
                {
                  OFFSET 2.60934 -0.819778 -0.0198488
                  CHANNELS 3 Zrotation Xrotation Yrotation
                  End Site
                  {
                    OFFSET 2.33842 -0.294052 0.168128
                  }
                }
              }
              JOINT lPinky1
              {
                OFFSET 8.27202 -0.0477905 -0.4584
                CHANNELS 3 Zrotation Xrotation Yrotation
                JOINT lPinky2
                {
                  OFFSET 1.82734 -0.647385 -0.700984
                  CHANNELS 3 Zrotation Xrotation Yrotation
                  End Site
                  {
                    OFFSET 1.69225 -0.51767 -0.607171
                  }
                }
              }
            }
          }
        }
      }
    }
  }
  JOINT rButtock
  {
    OFFSET -8.77824 4.35084 1.2192
    CHANNELS 3 Zrotation Xrotation Yrotation
    JOINT rThigh
    {
      OFFSET 0 -1.70687 -2.19456
      CHANNELS 3 Zrotation Xrotation Yrotation
      JOINT rShin
      {
        OFFSET 0 -36.8199 0.73152
        CHANNELS 3 Zrotation Xrotation Yrotation
        JOINT rFoot
        {
          OFFSET 0.73152 -45.1104 -5.12064
          CHANNELS 3 Zrotation Xrotation Yrotation
          End Site
          {
            OFFSET -1.1221 -3.69964 12.103
          }
        }
      }
    }
  }
  JOINT lButtock
  {
    OFFSET 8.77824 4.35084 1.2192
    CHANNELS 3 Zrotation Xrotation Yrotation
    JOINT lThigh
    {
      OFFSET 0 -1.70687 -2.19456
      CHANNELS 3 Zrotation Xrotation Yrotation
      JOINT lShin
      {
        OFFSET 0 -36.8199 0.73152
        CHANNELS 3 Zrotation Xrotation Yrotation
        JOINT lFoot
        {
          OFFSET -0.73152 -45.1104 -5.12064
          CHANNELS 3 Zrotation Xrotation Yrotation
          End Site
          {
            OFFSET 1.1221 -3.69964 12.103
          }
        }
      }
    }
  }
}
MOTION
Frames:	4
Frame Time:	0.00833333
30.5593 81.7478 -5.29084 141.683 -85.4256 -136.259 2.40679 32.6499 0.291462 1.67214 -6.85818 -0.00074239 -3.89855 -12.1683 -0.136485 -0.236445 5.20426 1.45951 -0.0 0.0 0.0 -0.0 0.0 0.0 -8.34561e-14 -4.02902e-13 4.73667e-14 69.6554 25.0128 13.7893 -25.1273 -21.3712 53.4104 -0.674981 -22.6778 -3.36654 5.67101e-10 2.23905e-09 -4.26154e-09 1.05567e-09 3.86613e-09 -7.35393e-09 5.67108e-10 2.23905e-09 -4.26156e-09 7.73091 5.47488 0.417314 5.67101e-10 2.23904e-09 -4.26155e-09 2.90554 0.965183 0.102902 5.6711e-10 2.23904e-09 -4.26154e-09 10.2786 0.731801 0.0259123 5.67097e-10 2.23905e-09 -4.26155e-09 2.22167 -0.733487 -0.20892 -8.35781e-14 -4.02909e-13 4.70033e-14 -38.2932 62.9434 -45.7007 25.1435 -21.4075 -53.4611 0.132922 -10.3343 1.46854 1.36793e-09 -8.31964e-10 2.09987e-09 2.34094e-09 -1.46497e-09 3.64259e-09 1.36793e-09 -8.31963e-10 2.09987e-09 -7.73091 5.47488 -0.417314 1.36793e-09 -8.31963e-10 2.09987e-09 -2.90554 0.965183 -0.102902 1.36792e-09 -8.3196e-10 2.09987e-09 -10.2786 0.731801 -0.0259123 1.36793e-09 -8.31959e-10 2.09987e-09 -2.22167 -0.733487 0.20892 -2.03217e-16 0.0 -3.88251e-19 -27.4641 -33.3565 -22.9417 -0.489878 47.844 1.05008 -2.58519 -10.3592 -7.93726 2.03217e-16 0.0 3.88251e-19 23.2959 -32.2221 17.4013 0.518007 46.6966 -0.798971 1.42442 -9.98067 2.80077
30.7255 81.6581 -5.10174 122.564 -86.54 -116.949 2.66429 32.6678 0.088999 1.51216 -7.09157 -0.0310109 -3.56808 -12.0943 0.189972 -0.535126 5.24025 1.95965 -0.0 0.0 0.0 -0.0 0.0 0.0 -6.86489e-14 -2.48075e-13 1.34444e-14 70.8443 24.6668 12.4833 -25.1808 -21.489 53.6 -0.697099 -23.0201 -3.42333 5.59351e-10 1.25402e-09 -2.76855e-09 1.01531e-09 2.16342e-09 -4.77335e-09 5.59359e-10 1.25402e-09 -2.76856e-09 7.73091 5.47488 0.417314 5.59353e-10 1.25402e-09 -2.76855e-09 2.90554 0.965183 0.102902 5.59361e-10 1.25402e-09 -2.76855e-09 10.2786 0.731801 0.0259123 5.5935e-10 1.25402e-09 -2.76855e-09 2.22167 -0.733487 -0.20892 -6.87445e-14 -2.48078e-13 1.31815e-14 -35.5392 62.4364 -48.0813 25.2811 -21.7129 -53.9627 0.133423 -10.3533 1.4713 1.09785e-09 -1.87705e-10 1.02341e-09 1.88507e-09 -3.41159e-10 1.7794e-09 1.09785e-09 -1.87709e-10 1.02342e-09 -7.73091 5.47488 -0.417314 1.09785e-09 -1.87708e-10 1.02341e-09 -2.90554 0.965183 -0.102902 1.09784e-09 -1.87702e-10 1.02342e-09 -10.2786 0.731801 -0.0259123 1.09785e-09 -1.87701e-10 1.02342e-09 -2.22167 -0.733487 0.20892 -2.03217e-16 0.0 -3.88251e-19 -28.2297 -32.9434 -23.9612 -0.494266 48.1094 1.07921 -2.86007 -10.4522 -8.8436 2.03217e-16 0.0 3.88251e-19 22.6625 -33.5407 16.3828 0.525985 46.9528 -0.804215 1.26753 -9.70142 2.29808
31.1586 81.5387 -4.73407 80.7362 -86.3903 -74.6026 2.82091 32.7299 0.174842 1.33929 -7.16725 0.00217381 -3.30537 -12.0662 0.437363 -0.789003 5.2344 2.33716 -0.0 0.0 0.0 -0.0 0.0 0.0 -4.84691e-14 -6.28161e-14 -1.69961e-14 71.8635 24.3255 11.3052 -25.2391 -21.6186 53.8094 -0.715261 -23.2939 -3.46902 4.78964e-10 7.58922e-10 -2.12154e-09 8.6574e-10 1.30854e-09 -3.65662e-09 4.78973e-10 7.58925e-10 -2.12156e-09 7.73091 5.47488 0.417314 4.78966e-10 7.58921e-10 -2.12155e-09 2.90554 0.965183 0.102902 4.78974e-10 7.58921e-10 -2.12155e-09 10.2786 0.731801 0.0259123 4.78965e-10 7.58923e-10 -2.12155e-09 2.22167 -0.733487 -0.20892 -4.8541e-14 -6.28161e-14 -1.71949e-14 -33.142 61.7509 -50.204 25.4129 -22.012 -54.454 0.135889 -10.452 1.48561 7.61682e-10 -2.87522e-11 6.56759e-10 1.30767e-09 -6.10189e-11 1.1432e-09 7.61678e-10 -2.8759e-11 6.56772e-10 -7.73091 5.47488 -0.417314 7.61681e-10 -2.87587e-11 6.56762e-10 -2.90554 0.965183 -0.102902 7.61671e-10 -2.87519e-11 6.56769e-10 -10.2786 0.731801 -0.0259123 7.61681e-10 -2.87498e-11 6.56769e-10 -2.22167 -0.733487 0.20892 -2.03217e-16 0.0 -3.88251e-19 -28.6945 -32.5273 -24.5521 -0.497054 48.3016 1.10355 -3.13051 -10.5761 -9.70424 2.03217e-16 0.0 3.88251e-19 22.1464 -34.5424 15.5943 0.532757 47.1663 -0.80839 1.11656 -9.47751 1.79689
31.4492 81.4189 -4.49788 57.7312 -85.5268 -51.1979 2.82154 32.8565 0.726348 1.12942 -7.00773 0.138137 -3.11449 -12.102 0.596514 -1.00879 5.17819 2.57749 -0.0 0.0 0.0 -0.0 0.0 0.0 -1.79693e-14 1.83621e-13 -3.76231e-14 72.7221 23.9714 10.2408 -25.3115 -21.7812 54.0733 -0.729629 -23.508 -3.50486 2.20713e-10 1.09595e-09 -3.11009e-09 4.40535e-10 1.89379e-09 -5.37028e-09 2.2072e-10 1.09596e-09 -3.11011e-09 7.73091 5.47488 0.417314 2.20715e-10 1.09595e-09 -3.1101e-09 2.90554 0.965183 0.102902 2.20722e-10 1.09596e-09 -3.1101e-09 10.2786 0.731801 0.0259123 2.20713e-10 1.09596e-09 -3.1101e-09 2.22167 -0.733487 -0.20892 -1.8022e-14 1.83622e-13 -3.7811e-14 -31.0739 60.8613 -52.121 25.5437 -22.3155 -54.9472 0.140833 -10.6373 1.51258 2.46219e-10 -7.75306e-10 1.64482e-09 4.06156e-10 -1.35448e-09 2.84833e-09 2.46215e-10 -7.75313e-10 1.64483e-09 -7.73091 5.47488 -0.417314 2.46218e-10 -7.75313e-10 1.64482e-09 -2.90554 0.965183 -0.102902 2.4621e-10 -7.75307e-10 1.64483e-09 -10.2786 0.731801 -0.0259123 2.4622e-10 -7.75305e-10 1.64483e-09 -2.22167 -0.733487 0.20892 -2.03217e-16 0.0 -3.88251e-19 -28.7198 -32.1045 -24.5034 -0.496872 48.3748 1.11976 -3.38769 -10.7452 -10.4793 2.03217e-16 0.0 3.88251e-19 21.852 -35.0543 15.1451 0.537687 47.3179 -0.811044 0.979332 -9.35059 1.32726
